# xmcd
#
# Track frame offsets:
#	150
#	20975
#	29710
#	44982
#	54360
#	70962
#	85365
#	101627
#	116222
#	124670
#	140382
#	151230
#	164410
#	177477
#	188465
#
# Disc length: 2691 seconds
#
# Revision: 0
# Processed by: cddbd v1.4PL0 Copyright (c) Steve Scherf et al.
# Submitted via: dBpowerAMP V4.0
#
DISCID=dd0a810f
DTITLE=Big Country Bluegrass - Big  Country Bluegrass
DYEAR=1997
DGENRE=Country
TTITLE0=I Still Miss Someone
TTITLE1=County Chain Gang
TTITLE2=My Only Love
TTITLE3=Pinnacle Mountain Breakdown
TTITLE4=Love Of The Mountains
TTITLE5=Your Memory
TTITLE6=Remember The Cross
TTITLE7=Brakeman's Blues
TTITLE8=Panhandle Country
TTITLE9=Cold,Lifeless Form
TTITLE10=Roll On Buddy, Roll On
TTITLE11=Malissa's Waltz
TTITLE12=Shady Grove
TTITLE13=Your Love Is Like A Flower
TTITLE14=Show Me The Way
EXTD=Galax or Mt. Airy Bluegrass
EXTT0=
EXTT1=
EXTT2=
EXTT3=
EXTT4=
EXTT5=
EXTT6=
EXTT7=
EXTT8=
EXTT9=
EXTT10=
EXTT11=
EXTT12=
EXTT13=
EXTT14=
PLAYORDER=
